<?xml version="1.0" encoding="utf-8"?>
<!-- Generator: Adobe Illustrator 21.1.0, SVG Export Plug-In . SVG Version: 6.00 Build 0)  -->
<svg version="1.1" id="Layer_1" xmlns="http://www.w3.org/2000/svg" xmlns:xlink="http://www.w3.org/1999/xlink" x="0px" y="0px"
	 viewBox="0 0 512 343.7" style="enable-background:new 0 0 512 343.7;" xml:space="preserve">
<style type="text/css">
	.st0{fill:#D8EAEF;}
	.st1{fill:#FFFFFF;}
	.st2{fill:none;stroke:#354F65;stroke-width:13;stroke-linecap:round;stroke-linejoin:round;stroke-miterlimit:10;}
</style>
<path class="st0" d="M350,119.3C344,56.3,288,7,219.9,7C147.8,7,89.4,62.3,89.4,130.5c0,6.6,0.6,13.1,1.6,19.4l0,0
	c-45.3,5.3-80.6,44.9-80.6,92.9c0,51.6,40.8,93.5,91.1,93.5h333.9c36.6,0,66.3-26.5,66.3-59.2c0-29.5-24.2-54-55.9-58.4l0,0
	c0-51.7-40.6-99.6-90.9-99.6C353.2,119.1,351.5,119.2,350,119.3"/>
<path class="st1" d="M301.1,119.3C296,56.3,248.6,6,190.5,10.1C153.9,12.7,89.4,62.3,89.4,130.5c0,6.6,1.6,19.4,1.6,19.4
	c-42.1,3.8-80.6,44.9-80.6,92.9c0,51.6,34.9,93.5,78,93.5h285.8c31.3,0,56.7-26.5,56.7-59.2c0-29.5-20.8-54-47.9-58.4l0,0
	c0-51.7-34.7-99.6-77.8-99.6C303.8,119.1,302.4,119.2,301.1,119.3c-22.8,1.4-43,14.6-56.5,34.6"/>
<path class="st2" d="M435.3,336.4c36.6,0,66.3-26.5,66.3-59.2c0-29.5-24.2-54-55.9-58.4l0,0c0-51.7-45.4-99.5-95.7-99.5
	c-1.6,0,1.6-0.1,0,0c-26.6,1.4-50.2,14.6-66,34.6"/>
<path class="st2" d="M350,119.3C344,56.3,288,7,219.9,7C147.8,7,89.4,62.3,89.4,130.5c0,6.6,0.6,13.1,1.6,19.4l0,0
	c-45.3,5.3-80.6,44.9-80.6,92.9c0,51.6,40.8,93.5,91.1,93.5h333.9"/>
</svg>
